<?xml version="1.0" standalone="no"?>
<!DOCTYPE svg PUBLIC "-//W3C//DTD SVG 20010904//EN"
 "http://www.w3.org/TR/2001/REC-SVG-20010904/DTD/svg10.dtd">
<svg version="1.0" xmlns="http://www.w3.org/2000/svg"
 width="700.000000pt" height="700.000000pt" viewBox="0 0 700.000000 700.000000"
 preserveAspectRatio="xMidYMid meet">
<metadata>
Created by potrace 1.14, written by Peter Selinger 2001-2017
</metadata>
<g transform="translate(0.000000,700.000000) scale(0.100000,-0.100000)"
fill="#000000" stroke="none">
<path d="M3438 6536 c-1 -2 -55 -6 -118 -10 -147 -7 -172 -11 -307 -47 -236
-62 -434 -175 -625 -357 -230 -219 -447 -582 -482 -807 -4 -21 -8 -40 -10 -44
-2 -3 -7 -35 -10 -71 -4 -36 -9 -81 -11 -100 -11 -75 -7 -824 4 -854 6 -16 21
-7 107 66 249 211 424 319 670 412 103 39 107 45 110 176 4 191 25 291 89 425
107 223 328 352 621 360 393 12 658 -196 739 -581 19 -90 24 -259 25 -829 1
-508 -3 -542 -65 -689 -61 -144 -211 -287 -373 -356 -69 -29 -135 -45 -232
-55 -107 -12 -126 -15 -180 -26 -239 -49 -377 -279 -314 -523 31 -122 111
-210 226 -252 117 -42 333 -50 508 -19 8 1 35 6 60 10 114 18 268 69 390 129
106 53 116 58 215 128 376 262 608 695 650 1213 6 70 6 1253 0 1335 -31 451
-356 919 -805 1157 -171 91 -387 159 -595 188 -16 3 -82 7 -145 11 -63 3 -120
7 -127 9 -6 2 -13 2 -15 1z"/>
<path d="M3327 4664 c-1 -1 -20 -4 -42 -8 -101 -14 -170 -31 -292 -72 -493
-164 -832 -477 -1007 -929 -38 -99 -83 -264 -91 -335 -3 -25 -8 -56 -11 -70
-12 -50 -20 -1210 -10 -1335 9 -117 38 -256 76 -375 28 -89 37 -108 102 -240
159 -317 430 -554 803 -702 132 -52 301 -97 431 -113 27 -4 60 -8 74 -11 52
-9 308 -5 390 6 115 15 117 16 217 40 203 51 411 156 581 293 85 69 264 262
320 347 165 248 231 458 257 818 7 86 6 843 -1 853 -9 15 -17 11 -99 -52 -240
-184 -554 -378 -677 -418 -113 -38 -107 -22 -109 -275 -2 -246 -14 -312 -81
-423 -68 -114 -222 -239 -367 -298 -150 -61 -268 -71 -437 -35 -280 60 -492
204 -535 364 -17 63 -17 61 -24 287 -4 118 -9 248 -10 289 -18 467 -23 768
-12 870 24 229 64 341 160 446 100 109 287 195 480 220 230 30 284 47 376 122
48 39 104 121 126 183 35 98 23 238 -29 329 -62 110 -189 193 -327 216 -39 6
-227 13 -232 8z"/>
</g>
</svg>
