<svg class="MuiSvgIcon-root AF_DS3395" focusable="false" viewBox="0 0 24 24" color="transparent" aria-hidden="true"><path d="M0.102361 7.61705L3.66104 14.396C3.90401 14.8578 4.50293 15.2327 4.99767 15.2314L12.2573 15.2161C12.7529 15.2151 12.9574 14.8393 12.7147 14.3767L9.15562 7.59813C8.91285 7.13541 8.31406 6.76156 7.81884 6.76265L0.559297 6.77775C0.548097 6.77775 0.53726 6.77812 0.52606 6.77812C0.0551061 6.79589 -0.135284 7.16474 0.102361 7.61705Z" fill="#A0A1A3"></path><path d="M13.8919 15.5157L16.047 19.5369C16.1936 19.8112 16.5521 20.0314 16.8474 20.028L21.1728 19.9823C21.4682 19.9793 21.5873 19.7544 21.4408 19.4799L19.2864 15.459C19.1396 15.1845 18.7805 14.9649 18.486 14.968L14.1605 15.0134C14.1555 15.0134 14.1507 15.0134 14.1456 15.0134C13.8613 15.024 13.7476 15.2454 13.8919 15.5157Z" fill="#A0A1A3"></path><path d="M13.9171 0.247045L9.5922 5.79829C9.29661 6.17755 9.25744 6.85717 9.50426 7.31823L13.12 14.0664C13.3665 14.5267 13.8061 14.5931 14.1012 14.2148L18.4266 8.66245C18.7216 8.28391 18.7612 7.60349 18.5139 7.14286L14.8986 0.394466C14.7553 0.128108 14.5481 -0.00618171 14.3414 0.00103216C14.1914 0.00713621 14.0414 0.0875995 13.9171 0.247045Z" fill="#A0A1A3"></path><path d="M12.9042 15.5829L10.3265 18.8907C10.1501 19.1166 10.1274 19.5219 10.2741 19.7959L12.4287 23.817C12.5761 24.0915 12.8377 24.131 13.0138 23.9051L15.5907 20.5977C15.7664 20.3714 15.7899 19.9658 15.6433 19.6922L13.4886 15.6709C13.4038 15.5121 13.2799 15.432 13.1565 15.436C13.0675 15.4392 12.9777 15.4874 12.9042 15.5829Z" fill="#A0A1A3"></path></svg>